Coordinates
version=1
nRows=26
nColumns=24
inDegrees=yes

Units are S.I. units (second, meters, Newtons, ...)
Angles are in degrees.

endheader
time	pelvis_tilt	pelvis_list	pelvis_rotation	pelvis_tx	pelvis_ty	pelvis_tz	hip_flexion_r	hip_adduction_r	hip_rotation_r	knee_angle_r	ankle_angle_r	subtalar_angle_r	mtp_angle_r	hip_flexion_l	hip_adduction_l	hip_rotation_l	knee_angle_l	ankle_angle_l	subtalar_angle_l	mtp_angle_l	lumbar_extension	lumbar_bending	lumbar_rotation
      3.66500000	     -5.27978862	      7.71558559	      2.67817285	     -0.59370532	     -0.01431707	     -0.15691468	     29.11703543	     -8.83142404	     -1.55951689	    -65.41788719	    -10.42193896	      6.16532627	     25.98950026	      8.75714270	     16.95512553	      0.34904176	    -12.01821454	      4.95663594	     -2.28113956	    -14.44121400	      6.46957924	    -10.93698501	     -5.64613908
      3.67000000	     -5.16043122	      7.44193284	      2.75614739	     -0.58781598	     -0.01354769	     -0.15731283	     29.69148188	     -8.50802092	     -1.73348501	    -64.54139684	     -9.88552406	      6.70412685	     26.25201992	      7.82309570	     16.66961203	      0.65175734	    -11.46180026	      5.12286815	     -2.15181456	    -14.43463356	      6.32433541	    -10.62508968	     -5.81467458
      3.67500000	     -5.02102426	      7.18421427	      2.83768501	     -0.58195706	     -0.01286701	     -0.15769808	     30.21945197	     -8.20355708	     -1.90774233	    -63.60854000	     -9.32056771	      7.27282545	     26.53218162	      6.88802504	     16.39025274	      0.91629311	    -10.93299306	      5.32651403	     -1.96969152	    -14.34887610	      6.14916229	    -10.33330611	     -5.99278609
      3.68000000	     -4.90877426	      6.91246069	      2.92303494	     -0.57614358	     -0.01225766	     -0.15809989	     30.75216139	     -7.88655269	     -2.08308188	    -62.60550273	     -8.81092045	      7.86375601	     26.77697003	      6.01851294	     16.08975784	      1.09696889	    -10.44667368	      5.52299138	     -1.72470355	    -14.20814408	      5.99537329	    -10.02119591	     -6.17528607
      3.68500000	     -4.78792583	      6.65124015	      3.00075899	     -0.57035472	     -0.01175033	     -0.15844989	     31.25362776	     -7.57249221	     -2.24834591	    -61.55079442	     -8.28070498	      8.44973306	     27.01465878	      5.16819034	     15.79054916	      1.23036554	    -10.00027689	      5.76524264	     -1.44416595	    -13.99128679	      5.82593731	     -9.72351385	     -6.35759598
      3.69000000	     -4.68836934	      6.38211904	      3.08149785	     -0.56459889	     -0.01131465	     -0.15879761	     31.75416591	     -7.25470911	     -2.41712842	    -60.43452619	     -7.80514648	      9.05421511	     27.20948237	      4.37274437	     15.48154482	      1.30833589	     -9.59392318	      5.99915372	     -1.14612986	    -13.75717103	      5.67252330	     -9.41600683	     -6.53859878
      3.69500000	     -4.58382663	      6.12148652	      3.15129098	     -0.55887342	     -0.01097099	     -0.15909734	     32.22657475	     -6.93532452	     -2.56886367	    -59.26712517	     -7.31555067	      9.63703380	     27.37753278	      3.60274470	     15.17743008	      1.35405982	     -9.23064800	      6.26144468	     -0.85026416	    -13.48957262	      5.50759563	     -9.12118336	     -6.71749368
      3.70000000	     -4.49278076	      5.86330240	      3.21614722	     -0.55318213	     -0.01071138	     -0.15936876	     32.69115849	     -6.61460301	     -2.70905520	    -58.04727950	     -6.85170211	     10.20278902	     27.50174815	      2.87793683	     14.87690888	      1.37973244	     -8.91007516	      6.52610803	     -0.58298180	    -13.23083515	      5.35082927	     -8.82774438	     -6.88635276
      3.70500000	     -4.39389647	      5.61292669	      3.27025037	     -0.54754630	     -0.01053710	     -0.15957870	     33.12774144	     -6.29029423	     -2.83158606	    -56.78418072	     -6.37600671	     10.74176578	     27.58886124	      2.17738988	     14.58342764	      1.38919667	     -8.63476225	      6.80703825	     -0.34684435	    -12.96520782	      5.17010906	     -8.54504608	     -7.05342773
      3.71000000	     -4.31477450	      5.36727284	      3.32244078	     -0.54193657	     -0.01043227	     -0.15976318	     33.56125844	     -5.97275660	     -2.94813117	    -55.47069697	     -5.93851482	     11.26692445	     27.63164553	      1.52383008	     14.29950381	      1.39572866	     -8.39531576	      7.06780877	     -0.16860348	    -12.75523854	      5.00590099	     -8.26959808	     -7.21350390
      3.71500000	     -4.29059290	      5.13049972	      3.36236006	     -0.53639105	     -0.01044443	     -0.15989584	     34.03538184	     -5.64211202	     -3.00608442	    -54.10484745	     -5.56249641	     11.71126260	     27.62866585	      0.97244238	     14.03283958	      1.42484221	     -8.22234697	      7.33232194	     -0.09123409	    -12.62396070	      4.89813277	     -7.99883922	     -7.31584145
      3.72000000	     -4.14529717	      4.91271850	      3.41480096	     -0.53087321	     -0.01042922	     -0.16003270	     34.34121474	     -5.36017209	     -3.11474692	    -52.70687804	     -5.07127427	     12.24653536	     27.62038097	      0.29259411	     13.78280151	      1.41788471	     -8.04979470	      7.61335357	      0.00568453	    -12.48596455	      4.63597741	     -7.75821927	     -7.52664289
      3.72500000	     -4.06514811	      4.69808971	      3.44765159	     -0.52540532	     -0.01052075	     -0.16007221	     34.69977377	     -5.05270772	     -3.16500156	    -51.26342250	     -4.65673681	     12.68782405	     27.54223397	     -0.27904167	     13.53879784	      1.42626531	     -7.93302586	      7.87693946	      0.01667071	    -12.41572014	      4.43520335	     -7.52567749	     -7.66498849
      3.73000000	     -4.05217479	      4.49899142	      3.47149529	     -0.51997828	     -0.01072310	     -0.16013013	     35.11105755	     -4.75325557	     -3.15076894	    -49.77666007	     -4.32455131	     13.07191044	     27.45507793	     -0.75050351	     13.32392343	      1.44368334	     -7.85803211	      8.12845436	     -0.02910576	    -12.39142034	      4.31420546	     -7.29637592	     -7.75924493
      3.73500000	     -3.96075120	      4.30962729	      3.50994630	     -0.51458975	     -0.01089967	     -0.16017000	     35.39181573	     -4.47765282	     -3.15017046	    -48.24287526	     -3.91537777	     13.49118300	     27.35139303	     -1.29509565	     13.11518657	      1.45756124	     -7.80299189	      8.38701501	     -0.08417312	    -12.41088479	      4.08861454	     -7.08108883	     -7.90050578
      3.74000000	     -3.78139688	      4.15038821	      3.54380778	     -0.50923260	     -0.01106234	     -0.16021808	     35.54437696	     -4.24017420	     -3.15805475	    -46.68418868	     -3.44428016	     13.86601062	     27.15376576	     -1.92544328	     12.93940317	      1.46447615	     -7.77042013	      8.66846388	     -0.16838761	    -12.53144426	      3.75434590	     -6.89798631	     -8.07820344
      3.74500000	     -3.66823952	      3.99922241	      3.56905924	     -0.50391591	     -0.01131130	     -0.16021488	     35.74455989	     -3.99582898	     -3.10233351	    -45.09221685	     -3.03856964	     14.18157446	     26.88999870	     -2.46656398	     12.77260016	      1.47736960	     -7.76317599	      8.94823828	     -0.25324612	    -12.73359340	      3.48851838	     -6.72583273	     -8.21936253
      3.75000000	     -3.66948834	      3.86841919	      3.58601868	     -0.49863382	     -0.01170486	     -0.16019417	     36.05210432	     -3.76752499	     -2.97451386	    -43.47198920	     -2.73238638	     14.44099710	     26.70232223	     -2.86117282	     12.63287895	      1.47289461	     -7.78564678	      9.19730364	     -0.32856244	    -12.83796410	      3.34260462	     -6.57501378	     -8.31190931
      3.75500000	     -3.44312158	      3.75736827	      3.62241552	     -0.49339043	     -0.01190879	     -0.16020138	     36.05076699	     -3.57839164	     -2.89928484	    -41.81818696	     -2.28548545	     14.65840891	     26.30650397	     -3.50222296	     12.49685732	      1.43815078	     -7.83043542	      9.54029860	     -0.29565416	    -13.20297736	      2.93117883	     -6.44473744	     -8.51570019
      3.76000000	     -3.35354776	      3.63829171	      3.64983993	     -0.48814922	     -0.01229594	     -0.16023519	     36.17988386	     -3.39405050	     -2.81260390	    -40.14703319	     -1.90402423	     14.83700450	     25.95725792	     -3.96435297	     12.36270522	      1.35758037	     -7.92516451	      9.91397763	     -0.24150454	    -13.48853273	      2.67360847	     -6.29178098	     -8.61166879
      3.76500000	     -3.25540756	      3.54736753	      3.68196785	     -0.48292865	     -0.01268662	     -0.16028003	     36.26305716	     -3.24113989	     -2.68161475	    -38.45431149	     -1.55290362	     14.94748126	     25.58250292	     -4.43173745	     12.24943836	      1.23702375	     -8.03013291	     10.28873002	     -0.07617220	    -13.74506980	      2.40324302	     -6.16634578	     -8.75030158
      3.77000000	     -3.14224873	      3.46219169	      3.72203612	     -0.47772471	     -0.01307581	     -0.16031456	     36.29314619	     -3.10596762	     -2.55707003	    -36.74655906	     -1.21531405	     15.01345134	     25.15049447	     -4.90142097	     12.12744462	      1.05517683	     -8.16388048	     10.70698842	      0.23571815	    -13.98702836	      2.10694400	     -6.05416104	     -8.90133021
      3.77500000	     -3.02588035	      3.38989339	      3.76467159	     -0.47252615	     -0.01348655	     -0.16035681	     36.28995339	     -2.99504919	     -2.43974190	    -35.03970916	     -0.88006211	     15.03064230	     24.65182687	     -5.35318765	     12.00682853	      0.77466454	     -8.34380900	     11.19062648	      0.72790787	    -14.21518459	      1.80762080	     -5.95460301	     -9.06480548
      3.78000000	     -2.92502513	      3.32065630	      3.81798363	     -0.46732048	     -0.01392671	     -0.16040635	     36.27298398	     -2.90400215	     -2.33774500	    -33.33770400	     -0.55721836	     15.02564040	     24.11148597	     -5.76879941	     11.87494915	      0.40289420	     -8.56596924	     11.73295898	      1.40132237	    -14.41095443	      1.51818988	     -5.85911879	     -9.23057177
      3.78500000	     -2.83578457	      3.30984754	      3.85236154	     -0.46213572	     -0.01440775	     -0.16038524	     36.26324750	     -2.85856790	     -2.17707886	    -31.68383721	     -0.22968339	     15.01262133	     23.46667469	     -6.13845527	     11.78265775	     -0.18064663	     -8.85986607	     12.37710814	      2.41146431	    -14.68483447	      1.23869711	     -5.83570990	     -9.43038404
      3.79000000	     -2.82557970	      3.26260310	      3.85028496	     -0.45683739	     -0.01503006	     -0.16035947	     36.32179921	     -2.77674639	     -2.04313981	    -30.06125667	      0.12174995	     15.05167678	     22.78902830	     -6.39015389	     11.64813073	     -0.88739748	     -9.24461548	     13.21662862	      3.60552513	    -15.16632727	      1.07245373	     -5.75605747	     -9.48228651
